<svg preserveAspectRatio="none" width="100%" height="100%" overflow="visible" style="display: block;" viewBox="0 0 10.4591 10.4591" fill="none" xmlns="http://www.w3.org/2000/svg">
<g id="arrow-right">
<path id="Vector" d="M3.88294 9.00791C3.80014 9.00791 3.71734 8.9774 3.65197 8.91203C3.52559 8.78565 3.52559 8.57647 3.65197 8.45009L6.49336 5.6087C6.70255 5.39952 6.70255 5.05959 6.49336 4.85041L3.65197 2.00902C3.52559 1.88264 3.52559 1.67346 3.65197 1.54708C3.77835 1.4207 3.98754 1.4207 4.11392 1.54708L6.95531 4.38847C7.17756 4.61072 7.30395 4.91142 7.30395 5.22956C7.30395 5.54769 7.18192 5.84839 6.95531 6.07064L4.11392 8.91203C4.04855 8.97305 3.96575 9.00791 3.88294 9.00791Z" fill="var(--fill-0, #030712)"/>
<path id="Vector_2" opacity="0" d="M10.4591 0H0V10.4591H10.4591V0Z" fill="var(--fill-0, #030712)"/>
</g>
</svg>
