<svg preserveAspectRatio="none" width="100%" height="100%" overflow="visible" style="display: block;" viewBox="0 0 17.4276 18.7392" fill="none" xmlns="http://www.w3.org/2000/svg">
<g id="Icon">
<path d="M1.08221 10.9435C0.711106 9.21168 0.525555 8.34577 0.75315 7.66689C0.952733 7.07156 1.35988 6.56793 1.90017 6.24804C2.5163 5.88325 3.40186 5.88325 5.17299 5.88325H12.2546C14.0257 5.88325 14.9113 5.88325 15.5274 6.24804C16.0677 6.56793 16.4749 7.07156 16.6744 7.66689C16.902 8.34577 16.7165 9.21168 16.3454 10.9435L15.996 12.5738C15.5749 14.5393 15.3643 15.5221 14.8413 16.2562C14.38 16.9037 13.7504 17.4126 13.0207 17.728C12.1933 18.0855 11.1882 18.0855 9.17807 18.0855H8.24952C6.23939 18.0855 5.23433 18.0855 4.40692 17.728C3.67717 17.4126 3.04759 16.9037 2.58632 16.2562C2.06333 15.5221 1.85274 14.5393 1.43156 12.5738L1.08221 10.9435Z" fill="var(--fill-0, white)" fill-opacity="0.4"/>
<path d="M12.2006 5.88325V3.64201C12.2006 1.99161 10.6397 0.653694 8.71422 0.653694C6.78875 0.653694 5.22785 1.99161 5.22785 3.64201V5.88325M8.24952 18.0855H9.17807C11.1882 18.0855 12.1933 18.0855 13.0207 17.728C13.7504 17.4126 14.38 16.9037 14.8413 16.2562C15.3643 15.5221 15.5749 14.5393 15.996 12.5738L16.3454 10.9435C16.7165 9.21168 16.902 8.34577 16.6744 7.66689C16.4749 7.07156 16.0677 6.56793 15.5274 6.24804C14.9113 5.88325 14.0257 5.88325 12.2546 5.88325H5.17299C3.40186 5.88325 2.5163 5.88325 1.90017 6.24804C1.35988 6.56793 0.952733 7.07156 0.75315 7.66689C0.525555 8.34577 0.711106 9.21168 1.08221 10.9435L1.43156 12.5738C1.85274 14.5393 2.06333 15.5221 2.58632 16.2562C3.04759 16.9037 3.67717 17.4126 4.40692 17.728C5.23433 18.0855 6.23939 18.0855 8.24952 18.0855Z" stroke="var(--stroke-0, white)" stroke-width="1.30739" stroke-linecap="round" stroke-linejoin="round"/>
</g>
</svg>
