<svg preserveAspectRatio="none" width="100%" height="100%" overflow="visible" style="display: block;" viewBox="0 0 14.2763 16.9961" fill="none" xmlns="http://www.w3.org/2000/svg">
<g id="Icon">
<path d="M4.95921 2.83268C4.95921 1.62926 5.93477 0.653694 7.13819 0.653694C8.34161 0.653694 9.31717 1.62926 9.31717 2.83268V4.57586C9.31717 5.77928 8.34161 6.75484 7.13819 6.75484C5.93477 6.75484 4.95921 5.77928 4.95921 4.57586V2.83268Z" fill="var(--fill-0, white)" fill-opacity="0.4"/>
<path d="M4.52339 16.3424H2.39806C1.26399 16.3424 0.431871 15.2766 0.706922 14.1764L1.41347 11.3502C1.70447 10.1862 2.75033 9.36962 3.95017 9.36962H10.3262C11.526 9.36962 12.5719 10.1862 12.8629 11.3502L13.5694 14.1764C13.8445 15.2766 13.0123 16.3424 11.8783 16.3424H9.75295M7.13819 6.75484C5.93477 6.75484 4.95921 5.77928 4.95921 4.57586V2.83268C4.95921 1.62926 5.93477 0.653694 7.13819 0.653694C8.34161 0.653694 9.31717 1.62926 9.31717 2.83268V4.57586C9.31717 5.77928 8.34161 6.75484 7.13819 6.75484Z" stroke="var(--stroke-0, white)" stroke-width="1.30739" stroke-linecap="round" stroke-linejoin="round"/>
</g>
</svg>
