<svg width="40" height="40" viewBox="0 0 40 40" fill="none" xmlns="http://www.w3.org/2000/svg">
  <path fill-rule="evenodd" clip-rule="evenodd" d="M6.66667 4C5.95942 4 5.28115 4.28095 4.78105 4.78105C4.28095 5.28115 4 5.95942 4 6.66667V33.3333C4 34.0406 4.28095 34.7189 4.78105 35.219C5.28115 35.719 5.95942 36 6.66667 36H33.3333C34.0406 36 34.7189 35.719 35.219 35.219C35.719 34.7189 36 34.0406 36 33.3333V6.66667C36 5.95942 35.719 5.28115 35.219 4.78105C34.7189 4.28095 34.0406 4 33.3333 4H6.66667ZM30.6667 8.44444C30.6667 10.8338 29.1378 12.1422 27.1111 13.4933C25.9929 12.7467 25.0293 12.0178 24.3876 11.1111H28C28.2357 11.1111 28.4618 11.0175 28.6285 10.8508C28.7952 10.6841 28.8889 10.458 28.8889 10.2222C28.8889 9.98647 28.7952 9.76038 28.6285 9.59368C28.4618 9.42698 28.2357 9.33333 28 9.33333H23.632C23.58 9.03992 23.5544 8.74243 23.5556 8.44444H21.7778C21.7778 11.4756 23.6249 13.2267 25.5004 14.5476C24.7609 15.0418 24.0284 15.5787 23.4204 16.1956C22.4711 17.1644 21.7778 18.3769 21.7778 20C21.7778 21.6231 22.4693 22.8356 23.4222 23.8044C24.0267 24.4196 24.7609 24.9582 25.5004 25.4524C23.6249 26.7733 21.7778 28.5227 21.7778 31.5556H23.5556C23.5556 29.1662 25.0844 27.8578 27.1111 26.5067C28.2276 27.2533 29.1947 27.9822 29.8347 28.8889H26.2222C25.9865 28.8889 25.7604 28.9825 25.5937 29.1492C25.427 29.3159 25.3333 29.542 25.3333 29.7778C25.3333 30.0135 25.427 30.2396 25.5937 30.4063C25.7604 30.573 25.9865 30.6667 26.2222 30.6667H30.5902C30.64 30.9458 30.6667 31.2409 30.6667 31.5556H32.4444C32.4444 28.5227 30.5973 26.7733 28.7218 25.4524C29.4613 24.9582 30.1938 24.4213 30.8018 23.8044C31.7529 22.8356 32.4444 21.6231 32.4444 20C32.4444 18.3769 31.7511 17.1644 30.8 16.1956C30.1956 15.5804 29.4613 15.0418 28.7218 14.5476C30.5973 13.2267 32.4444 11.4756 32.4444 8.44444H30.6667ZM24.8 17.3333C25.4258 16.7271 26.2187 16.1956 27.1111 15.616C28.0036 16.1956 28.7964 16.7271 29.4222 17.3333H24.8ZM23.6693 19.1111C23.5922 19.4011 23.554 19.7 23.5556 20C23.5556 20.3182 23.5947 20.6133 23.6693 20.8889H30.5529C30.6276 20.6133 30.6667 20.3182 30.6667 20C30.6667 19.6818 30.6276 19.3867 30.5529 19.1111H23.6693ZM27.1111 24.384C26.2187 23.8044 25.4258 23.2729 24.8 22.6667H29.4222C28.7964 23.2729 28.0036 23.8044 27.1111 24.384ZM10.2222 13.7778C10.2222 13.542 10.3159 13.3159 10.4826 13.1492C10.6493 12.9825 10.8754 12.8889 11.1111 12.8889H17.3333C17.5691 12.8889 17.7952 12.9825 17.9619 13.1492C18.1286 13.3159 18.2222 13.542 18.2222 13.7778V15.5556C18.2222 15.7913 18.1286 16.0174 17.9619 16.1841C17.7952 16.3508 17.5691 16.4444 17.3333 16.4444H16.4444V20.0427L20.2062 26.1316C21.6693 28.5013 19.9644 31.5556 17.1804 31.5556H11.264C8.48 31.5556 6.77511 28.5013 8.23822 26.1316L12 20.0427V16.4444H11.1111C10.8754 16.4444 10.6493 16.3508 10.4826 16.1841C10.3159 16.0174 10.2222 15.7913 10.2222 15.5556V13.7778Z" fill="white"/>
</svg>
