<svg preserveAspectRatio="none" width="100%" height="100%" overflow="visible" style="display: block;" viewBox="0 0 13.9455 13.9455" fill="none" xmlns="http://www.w3.org/2000/svg">
<g id="star">
<path id="Vector" d="M3.33529 9.29699C3.39921 9.01227 3.283 8.60552 3.07963 8.40215L1.66765 6.99017C1.22604 6.54857 1.05172 6.07791 1.17956 5.67116C1.3132 5.26442 1.72575 4.98551 2.34168 4.88092L4.15459 4.57877C4.41607 4.53228 4.73565 4.29986 4.85768 4.06162L5.8571 2.05696C6.14763 1.48171 6.54276 1.16212 6.97274 1.16212C7.40273 1.16212 7.79785 1.48171 8.08838 2.05696L9.08781 4.06162C9.16334 4.2127 9.32023 4.35796 9.48874 4.45674L3.2307 10.7148C3.14935 10.7961 3.0099 10.7206 3.03314 10.6044L3.33529 9.29699Z" fill="var(--fill-0, #FFAA00)"/>
<path id="Vector_2" d="M10.8659 8.40215C10.6567 8.61134 10.5405 9.01227 10.6102 9.29699L11.0111 11.046C11.1796 11.7723 11.075 12.3185 10.7148 12.58C10.5695 12.6846 10.3952 12.7369 10.1918 12.7369C9.89548 12.7369 9.54685 12.6265 9.16334 12.3999L7.46083 11.3888C7.19354 11.2319 6.75194 11.2319 6.48465 11.3888L4.78214 12.3999C4.13716 12.7775 3.58515 12.8415 3.2307 12.58C3.09706 12.4812 2.99828 12.3476 2.93436 12.1732L10.0001 5.10753C10.2674 4.84024 10.6451 4.71822 11.0111 4.78214L11.598 4.88092C12.2139 4.98551 12.6265 5.26442 12.7601 5.67116C12.888 6.07791 12.7136 6.54857 12.272 6.99017L10.8659 8.40215Z" fill="var(--fill-0, #FFAA00)"/>
<g id="Vector_3" opacity="0">
</g>
</g>
</svg>
