<svg preserveAspectRatio="none" width="100%" height="100%" overflow="visible" style="display: block;" viewBox="0 0 13 13.5321" fill="none" xmlns="http://www.w3.org/2000/svg">
<g id="Icon">
<path d="M0.5 5.07901C0.5 4.63321 0.722802 4.2169 1.09373 3.96961L6.1302 0.611967C6.35413 0.462678 6.64587 0.462678 6.8698 0.611966L11.9063 3.96961C12.2772 4.2169 12.5 4.63321 12.5 5.07901V11.0321C12.5 12.1367 11.6046 13.0321 10.5 13.0321H2.5C1.39543 13.0321 0.5 12.1367 0.5 11.0321V5.07901Z" fill="var(--fill-0, #FFD2D2)" fill-opacity="0.4"/>
<path d="M3.83333 9.69877H9.16667M6.1302 0.611967L1.09373 3.96961C0.722802 4.2169 0.5 4.63321 0.5 5.07901V11.0321C0.5 12.1367 1.39543 13.0321 2.5 13.0321H10.5C11.6046 13.0321 12.5 12.1367 12.5 11.0321V5.07901C12.5 4.63321 12.2772 4.2169 11.9063 3.96961L6.8698 0.611966C6.64587 0.462678 6.35413 0.462678 6.1302 0.611967Z" stroke="var(--stroke-0, #FEF2F2)" stroke-linecap="round" stroke-linejoin="round"/>
</g>
</svg>
