<svg preserveAspectRatio="none" width="100%" height="100%" overflow="visible" style="display: block;" viewBox="0 0 16 16" fill="none" xmlns="http://www.w3.org/2000/svg">
<g id="instagram">
<path id="Vector" d="M10.7933 1.33333H5.20667C2.78 1.33333 1.33333 2.78 1.33333 5.20667V10.7867C1.33333 13.22 2.78 14.6667 5.20667 14.6667H10.7867C13.2133 14.6667 14.66 13.22 14.66 10.7933V5.20667C14.6667 2.78 13.22 1.33333 10.7933 1.33333ZM8 10.5867C6.57333 10.5867 5.41333 9.42667 5.41333 8C5.41333 6.57333 6.57333 5.41333 8 5.41333C9.42667 5.41333 10.5867 6.57333 10.5867 8C10.5867 9.42667 9.42667 10.5867 8 10.5867ZM11.9467 4.58667C11.9133 4.66667 11.8667 4.74 11.8067 4.80667C11.74 4.86667 11.6667 4.91333 11.5867 4.94667C11.5067 4.98 11.42 5 11.3333 5C11.1533 5 10.9867 4.93333 10.86 4.80667C10.8 4.74 10.7533 4.66667 10.72 4.58667C10.6867 4.50667 10.6667 4.42 10.6667 4.33333C10.6667 4.24667 10.6867 4.16 10.72 4.08C10.7533 3.99333 10.8 3.92667 10.86 3.86C11.0133 3.70667 11.2467 3.63333 11.46 3.68C11.5067 3.68667 11.5467 3.7 11.5867 3.72C11.6267 3.73333 11.6667 3.75333 11.7067 3.78C11.74 3.8 11.7733 3.83333 11.8067 3.86C11.8667 3.92667 11.9133 3.99333 11.9467 4.08C11.98 4.16 12 4.24667 12 4.33333C12 4.42 11.98 4.50667 11.9467 4.58667Z" fill="var(--fill-0, #FFD2D2)"/>
<g id="Vector_2" opacity="0">
</g>
</g>
</svg>
