<svg preserveAspectRatio="none" width="100%" height="100%" overflow="visible" style="display: block;" viewBox="0 0 41.8315 32.523" fill="none" xmlns="http://www.w3.org/2000/svg">
<path id="&#226;&#128;&#156;" d="M11.7895 0.199401L17.9223 5.10565L18.0609 5.216L17.9037 5.29901C16.1362 6.23809 14.224 7.87174 12.6283 9.77264C11.0955 11.5988 9.86413 13.6624 9.3295 15.5803C9.37917 15.5629 9.43153 15.5444 9.48673 15.5295C9.64785 15.486 9.83746 15.4503 10.0424 15.4221C10.4527 15.3655 10.9321 15.3371 11.3822 15.3371C15.6867 15.3371 19.0804 18.6264 19.0805 23.4816C19.0805 28.3403 15.0144 32.4064 10.1557 32.4064C4.84476 32.4062 0.116613 28.222 0.116613 20.9172C0.116695 12.5105 4.71211 5.00684 11.6508 0.194518L11.7221 0.144713L11.7895 0.199401ZM34.4233 0.198424L40.6674 5.10467L40.808 5.21503L40.6498 5.29901C38.8819 6.23824 36.9418 7.87199 35.3324 9.77264C33.7849 11.6004 32.5533 13.6652 32.0688 15.5822C32.1202 15.564 32.1744 15.545 32.2318 15.5295C32.3931 15.486 32.5833 15.4504 32.7885 15.4221C33.1989 15.3655 33.6782 15.3371 34.1283 15.3371C38.3223 15.3371 41.7151 18.6275 41.7152 23.4816C41.7152 28.3393 37.7615 32.4063 32.7904 32.4064C30.1389 32.4064 27.654 31.3623 25.8334 29.4006C24.0129 27.4387 22.8617 24.5656 22.8617 20.9172C22.8618 12.5116 27.3451 5.00748 34.2846 0.194518L34.3559 0.14569L34.4233 0.198424Z" fill="var(--fill-0, #990B33)" stroke="var(--stroke-0, #990B33)" stroke-width="0.232824"/>
</svg>
