<svg width="100%" height="100%" viewBox="0 0 8 8" fill="none" xmlns="http://www.w3.org/2000/svg">
<path d="M3.8147 0.6357C3.8825 0.4759 4.1175 0.4759 4.1853 0.6357L5.0118 2.5546C5.0399 2.6203 5.1013 2.6660 5.1727 2.6717L7.2549 2.8412C7.4222 2.8551 7.4914 3.0640 7.3589 3.1773L5.7805 4.5316C5.7257 4.5783 5.7019 4.6520 5.7188 4.7224L6.2003 6.7494C6.2398 6.9128 6.0626 7.0426 5.9180 6.9530L4.1042 5.8497C4.0426 5.8121 3.9651 5.8121 3.9035 5.8497L2.0897 6.9530C1.9451 7.0426 1.7679 6.9128 1.8073 6.7494L2.2889 4.7224C2.3058 4.6520 2.2819 4.5783 2.2271 4.5316L0.6488 3.1773C0.5163 3.0640 0.5855 2.8551 0.7527 2.8412L2.8350 2.6717C2.9063 2.6660 2.9678 2.6203 2.9959 2.5546L3.8147 0.6357Z" fill="currentColor"/>
</svg>
