<svg preserveAspectRatio="none" width="100%" height="100%" overflow="visible" style="display: block;" viewBox="0 0 13.2075 13.0983" fill="none" xmlns="http://www.w3.org/2000/svg">
<path id="Icon" d="M8.60203 3.4379L7.5403 1.49125C7.23534 0.932125 7.08287 0.652563 6.88096 0.560303C6.70501 0.479904 6.50281 0.479899 6.32685 0.560287C6.12494 0.652536 5.97244 0.932089 5.66746 1.4912L4.60552 3.43794C4.52301 3.5892 4.48175 3.66483 4.42529 3.72577C4.37525 3.77978 4.3166 3.82512 4.25174 3.85996C4.17856 3.89927 4.09498 3.92017 3.92782 3.96196L1.64571 4.53248C1.08145 4.67355 0.799324 4.74408 0.661132 4.90483C0.540501 5.04515 0.48362 5.2293 0.504101 5.41321C0.527563 5.6239 0.720766 5.84125 1.10717 6.27596L2.599 7.95427C2.71003 8.07917 2.76554 8.14162 2.80323 8.21303C2.83663 8.27633 2.85963 8.3446 2.87133 8.41521C2.88453 8.49486 2.87811 8.57817 2.86529 8.7448L2.6804 11.1464C2.63135 11.7836 2.60682 12.1022 2.72626 12.2897C2.83034 12.4532 3.00037 12.5632 3.1921 12.5913C3.41211 12.6235 3.69275 12.4707 4.25402 12.165L6.09324 11.1636C6.27974 11.062 6.373 11.0112 6.47156 10.9913C6.5588 10.9737 6.64869 10.9737 6.73592 10.9914C6.83446 11.0114 6.92768 11.0622 7.11411 11.1639L8.95285 12.1669C9.51428 12.4731 9.795 12.6262 10.0151 12.5941C10.2069 12.5662 10.377 12.4562 10.4812 12.2927C10.6007 12.1051 10.5762 11.7863 10.5271 11.1486L10.3422 8.74476C10.3294 8.57815 10.323 8.49484 10.3362 8.4152C10.3479 8.34459 10.3709 8.27633 10.4043 8.21304C10.442 8.14164 10.4975 8.07919 10.6085 7.9543L12.1004 6.27596C12.4868 5.84125 12.68 5.6239 12.7034 5.41321C12.7239 5.2293 12.667 5.04515 12.5464 4.90483C12.4082 4.74408 12.1261 4.67355 11.5618 4.53248L9.27977 3.96197C9.11259 3.92017 9.02901 3.89928 8.95582 3.85996C8.89095 3.82512 8.83231 3.77977 8.78226 3.72575C8.7258 3.66481 8.68454 3.58917 8.60203 3.4379Z" fill="var(--fill-0, #FFD2D2)" stroke="var(--stroke-0, #990B33)" stroke-linecap="round" stroke-linejoin="round"/>
</svg>
