<svg preserveAspectRatio="none" width="100%" height="100%" overflow="visible" style="display: block;" viewBox="0 0 14.3333 14.3333" fill="none" xmlns="http://www.w3.org/2000/svg">
<g id="Icon">
<path d="M3.16667 3.16667C3.16667 1.69391 4.36057 0.5 5.83333 0.5H8.5C9.97276 0.5 11.1667 1.69391 11.1667 3.16667V11.1667C11.1667 12.6394 9.97276 13.8333 8.5 13.8333H5.83333C4.36057 13.8333 3.16667 12.6394 3.16667 11.1667V3.16667Z" fill="var(--fill-0, #FFD2D2)"/>
<path d="M0.5 10.5V3.83333M13.8333 10.5V3.83333M5.83333 13.8333H8.5C9.97276 13.8333 11.1667 12.6394 11.1667 11.1667V3.16667C11.1667 1.69391 9.97276 0.5 8.5 0.5H5.83333C4.36057 0.5 3.16667 1.69391 3.16667 3.16667V11.1667C3.16667 12.6394 4.36057 13.8333 5.83333 13.8333Z" stroke="var(--stroke-0, #990B33)" stroke-linecap="round" stroke-linejoin="round"/>
</g>
</svg>
