<svg preserveAspectRatio="none" width="100%" height="100%" overflow="visible" style="display: block;" viewBox="0 0 16 16" fill="none" xmlns="http://www.w3.org/2000/svg">
<g id="whatsapp">
<g id="BG 164" opacity="0.58">
</g>
<path id="Vector" d="M14.6533 7.60668C14.4266 3.74001 10.9133 0.760015 6.86665 1.42668C4.07999 1.88668 1.84666 4.14667 1.41333 6.93334C1.15999 8.54667 1.49334 10.0733 2.22001 11.3333L1.62666 13.54C1.49333 14.04 1.95332 14.4933 2.44665 14.3533L4.61999 13.7533C5.60666 14.3333 6.75999 14.6667 7.99332 14.6667C11.7533 14.6667 14.8733 11.3533 14.6533 7.60668ZM11.2533 10.48C11.1933 10.6 11.12 10.7133 11.0266 10.82C10.86 11 10.68 11.1333 10.48 11.2133C10.28 11.3 10.06 11.34 9.82666 11.34C9.48666 11.34 9.11999 11.26 8.73999 11.0933C8.35332 10.9267 7.97334 10.7067 7.59334 10.4333C7.20667 10.1533 6.84666 9.84001 6.5 9.50001C6.15333 9.15334 5.84665 8.78666 5.56665 8.40666C5.29331 8.02666 5.07333 7.64667 4.91333 7.26667C4.75333 6.88667 4.67333 6.52001 4.67333 6.17335C4.67333 5.94668 4.71333 5.72668 4.79333 5.52668C4.87333 5.32001 5.00001 5.13335 5.18001 4.96668C5.39334 4.75335 5.62666 4.65335 5.87333 4.65335C5.96666 4.65335 6.05998 4.67334 6.14664 4.71334C6.23331 4.75334 6.31333 4.81334 6.37333 4.90001L7.14664 5.99333C7.20664 6.08 7.25332 6.15334 7.27998 6.22667C7.31332 6.3 7.32666 6.36667 7.32666 6.43333C7.32666 6.51333 7.3 6.59335 7.25333 6.67335C7.20667 6.75335 7.14665 6.83334 7.06665 6.91334L6.81331 7.18C6.77331 7.22 6.76 7.26001 6.76 7.31334C6.76 7.34001 6.76664 7.36667 6.77331 7.39334C6.78664 7.42 6.79334 7.44001 6.8 7.46001C6.86 7.57334 6.96665 7.71333 7.11332 7.88666C7.26665 8.06 7.42668 8.24 7.60001 8.41334C7.78001 8.59334 7.95334 8.75333 8.13334 8.90666C8.30667 9.05333 8.45331 9.15334 8.56665 9.21334C8.58665 9.22001 8.60666 9.23333 8.62666 9.24C8.65333 9.25333 8.68 9.25334 8.71333 9.25334C8.77333 9.25334 8.81335 9.23335 8.85335 9.19335L9.10664 8.94001C9.19331 8.85334 9.27334 8.79334 9.34667 8.75334C9.42667 8.70668 9.5 8.68 9.58667 8.68C9.65333 8.68 9.72 8.69334 9.79333 8.72667C9.86666 8.76 9.94665 8.80001 10.0266 8.86001L11.1333 9.64667C11.22 9.70667 11.28 9.78001 11.32 9.86001C11.3533 9.94668 11.3733 10.0267 11.3733 10.12C11.3333 10.2333 11.3067 10.36 11.2533 10.48Z" fill="var(--fill-0, #FFD2D2)"/>
<g id="Vector_2" opacity="0">
</g>
</g>
</svg>
