<svg preserveAspectRatio="none" width="100%" height="100%" overflow="visible" style="display: block;" viewBox="0 0 150.631 126.131" fill="none" xmlns="http://www.w3.org/2000/svg">
<g id="undraw_empty-cart_574u 1" clip-path="url(#clip0_0_87)">
<path id="Vector" d="M6.99917 120.189C9.08858 124.076 13.523 125.744 13.523 125.744C13.523 125.744 14.5699 121.111 12.4805 117.225C10.3911 113.338 5.95664 111.669 5.95664 111.669C5.95664 111.669 4.90977 116.302 6.99917 120.189Z" fill="#510015"/>
<path id="Vector_2" d="M8.43542 118.91C12.2076 121.187 13.6605 125.709 13.6605 125.709C13.6605 125.709 8.99726 126.539 5.22503 124.263C1.45281 121.986 0 117.465 0 117.465C0 117.465 4.66319 116.634 8.43542 118.91Z" fill="#FFD2D2"/>
<path id="Vector_3" d="M93.0091 6.05513H69.4731V6.39239H93.0091V6.05513Z" fill="#F2F2F2"/>
<path id="Vector_4" d="M86.6208 6.30807H86.2846V9.42773H86.6208V6.30807Z" fill="#F2F2F2"/>
<path id="Vector_5" d="M76.3659 6.30807H76.0297V9.42773H76.3659V6.30807Z" fill="#F2F2F2"/>
<path id="Vector_6" d="M104.946 22.2436H81.4095V22.5809H104.946V22.2436Z" fill="#F2F2F2"/>
<path id="Vector_7" d="M88.1339 19.2083H87.7977V22.3279H88.1339V19.2083Z" fill="#F2F2F2"/>
<path id="Vector_8" d="M98.3889 19.2083H98.0526V22.3279H98.3889V19.2083Z" fill="#F2F2F2"/>
<path id="Vector_9" d="M136.215 29.832H112.678V30.1693H136.215V29.832Z" fill="#F2F2F2"/>
<path id="Vector_10" d="M119.403 26.7966H119.067V29.9163H119.403V26.7966Z" fill="#F2F2F2"/>
<path id="Vector_11" d="M129.658 26.7966H129.322V29.9163H129.658V26.7966Z" fill="#F2F2F2"/>
<path id="Vector_12" d="M133.861 108.076H110.325V108.414H133.861V108.076Z" fill="#F2F2F2"/>
<path id="Vector_13" d="M117.05 105.041H116.714V108.161H117.05V105.041Z" fill="#F2F2F2"/>
<path id="Vector_14" d="M127.305 105.041H126.969V108.161H127.305V105.041Z" fill="#F2F2F2"/>
<path id="Vector_15" d="M93.6817 53.9461H70.1456V54.2834H93.6817V53.9461Z" fill="#F2F2F2"/>
<path id="Vector_16" d="M76.8701 50.9108H76.5339V54.0305H76.8701V50.9108Z" fill="#F2F2F2"/>
<path id="Vector_17" d="M87.125 50.9108H86.7888V54.0305H87.125V50.9108Z" fill="#F2F2F2"/>
<path id="Vector_18" d="M101.079 94.586H77.5428V94.9233H101.079V94.586Z" fill="#F2F2F2"/>
<path id="Vector_19" d="M84.2672 91.5507H83.931V94.6703H84.2672V91.5507Z" fill="#F2F2F2"/>
<path id="Vector_20" d="M94.5222 91.5507H94.1859V94.6703H94.5222V91.5507Z" fill="#F2F2F2"/>
<path id="Vector_21" d="M138.737 82.276H115.2V82.6133H138.737V82.276Z" fill="#F2F2F2"/>
<path id="Vector_22" d="M121.925 79.2407H121.589V82.3603H121.925V79.2407Z" fill="#F2F2F2"/>
<path id="Vector_23" d="M132.18 79.2407H131.844V82.3603H132.18V79.2407Z" fill="#F2F2F2"/>
<g id="Group">
<path id="Vector_24" d="M33.1521 58.5746L25.5817 59.7912L25.1575 57.1513C24.9961 56.1474 25.2402 55.1205 25.836 54.2965C26.4318 53.4726 27.3305 52.919 28.3344 52.7577C29.3383 52.5964 30.3652 52.8404 31.1892 53.4362C32.0131 54.032 32.5667 54.9307 32.728 55.9346L33.1521 58.5746ZM25.7223 59.5966L32.9566 58.434L32.5593 55.9617C32.483 55.4867 32.3138 55.0314 32.0615 54.6218C31.8092 54.2121 31.4787 53.8562 31.0888 53.5743C30.699 53.2924 30.2574 53.09 29.7893 52.9788C29.3213 52.8675 28.8359 52.8495 28.3608 52.9259C27.8858 53.0022 27.4305 53.1714 27.0209 53.4237C26.6112 53.676 26.2553 54.0065 25.9734 54.3964C25.6915 54.7862 25.4891 55.2278 25.3779 55.6959C25.2666 56.1639 25.2486 56.6493 25.325 57.1243L25.7223 59.5966Z" fill="#510015"/>
<path id="Vector_25" d="M36.8365 57.611L36.6706 56.5785L17.501 60.1884L21.0915 86.4189L24.5065 89.4814L36.8365 57.611Z" fill="#990B33"/>
<path id="Vector_26" d="M40.1869 56.6991L19.3956 60.5276L24.507 89.4803L44.2963 84.0733L40.1869 56.6991Z" fill="#FFD2D2"/>
</g>
<g id="Group_2">
<path id="Vector_27" d="M62.1169 56.2583L54.0496 52.3278L55.4204 49.5143C55.6747 48.9784 56.0326 48.4982 56.4737 48.1014C56.9147 47.7047 57.43 47.3994 57.9898 47.2031C58.5496 47.0069 59.1427 46.9235 59.7349 46.9579C60.3271 46.9924 60.9066 47.1439 61.4398 47.4037C61.9731 47.6635 62.4496 48.0265 62.8417 48.4716C63.2338 48.9167 63.5337 49.4352 63.7241 49.997C63.9146 50.5588 63.9917 51.1527 63.9512 51.7445C63.9106 52.3363 63.7531 52.9142 63.4877 53.4448L62.1169 56.2583ZM54.3156 52.2356L62.0263 55.9923L63.3097 53.3581C63.8079 52.3356 63.8795 51.157 63.5087 50.0817C63.138 49.0065 62.3552 48.1225 61.3327 47.6243C60.3102 47.1262 59.1317 47.0546 58.0564 47.4253C56.9812 47.7961 56.0972 48.5788 55.599 49.6013L54.3156 52.2356Z" fill="#9F9FA9"/>
<path id="Vector_28" d="M66.2954 57.8152L66.8311 56.7157L46.0456 47.2693L31.8277 74.8026L33.0366 80.0331L66.2954 57.8152Z" fill="#9F9FA9"/>
<path id="Vector_29" d="M70.1159 59.1975L47.6307 48.8688L33.0364 80.0331L55.6251 88.1761L70.1159 59.1975Z" fill="#E4E4E7"/>
</g>
<path id="Vector_30" d="M60.8679 118.41H21.0606V118.122H60.5814V104.19H24.4071L22.6498 100.518L22.908 100.394L24.5873 103.903H60.8679V118.41Z" fill="#2F2E41"/>
<path id="Vector_31" d="M26.3583 125.447C28.0191 125.447 29.3654 124.097 29.3654 122.431C29.3654 120.765 28.0191 119.415 26.3583 119.415C24.6976 119.415 23.3513 120.765 23.3513 122.431C23.3513 124.097 24.6976 125.447 26.3583 125.447Z" fill="#3F3D56"/>
<path id="Vector_32" d="M55.9991 125.447C57.6598 125.447 59.0061 124.097 59.0061 122.431C59.0061 120.765 57.6598 119.415 55.9991 119.415C54.3383 119.415 52.9921 120.765 52.9921 122.431C52.9921 124.097 54.3383 125.447 55.9991 125.447Z" fill="#3F3D56"/>
<path id="Vector_33" d="M90.9379 60.2391C91.966 60.2391 92.7994 59.4031 92.7994 58.3719C92.7994 57.3406 91.966 56.5047 90.9379 56.5047C89.9098 56.5047 89.0764 57.3406 89.0764 58.3719C89.0764 59.4031 89.9098 60.2391 90.9379 60.2391Z" fill="#3F3D56"/>
<path id="Vector_34" d="M65.1252 99.4503H20.3817L10.7002 67.7079H75.0956L75.037 67.8946L65.1252 99.4503ZM20.5935 99.163H64.9152L74.7052 67.9951H11.0873L20.5935 99.163Z" fill="#2F2E41"/>
<path id="Vector_35" d="M61.6327 97.7985H22.3328L13.8292 69.6468H70.3899L70.3385 69.8126L61.6327 97.7985Z" fill="#F4F4F5"/>
<path id="Vector_36" d="M75.898 64.872L75.6211 64.7984L77.5109 57.6537H88.5038V57.941H77.7313L75.898 64.872Z" fill="#2F2E41"/>
<path id="Vector_37" d="M71.8777 77.3311H13.8288V77.6184H71.8777V77.3311Z" fill="#2F2E41"/>
<path id="Vector_38" d="M68.5532 87.9143H17.0566V88.2016H68.5532V87.9143Z" fill="#2F2E41"/>
<path id="Vector_39" d="M43.0403 67.8515H42.7539V99.3066H43.0403V67.8515Z" fill="#2F2E41"/>
<path id="Vector_40" d="M55.8622 67.8425L53.8064 99.2968L54.0922 99.3156L56.148 67.8613L55.8622 67.8425Z" fill="#2F2E41"/>
<path id="Vector_41" d="M29.9381 67.8422L29.6523 67.8609L31.6961 99.316L31.9819 99.2973L29.9381 67.8422Z" fill="#2F2E41"/>
<path id="Vector_42" d="M150.631 125.63H0V125.967H150.631V125.63Z" fill="#2F2E41"/>
<path id="Vector_43" d="M41.9024 9.59634H18.3663V9.9336H41.9024V9.59634Z" fill="#F2F2F2"/>
<path id="Vector_44" d="M35.5141 9.84928H35.1778V12.9689H35.5141V9.84928Z" fill="#F2F2F2"/>
<path id="Vector_45" d="M25.2591 9.84928H24.9229V12.9689H25.2591V9.84928Z" fill="#F2F2F2"/>
<path id="Vector_46" d="M65.6064 42.8165H42.0703V43.1538H65.6064V42.8165Z" fill="#F2F2F2"/>
<path id="Vector_47" d="M59.2181 43.0695H58.8818V46.1891H59.2181V43.0695Z" fill="#F2F2F2"/>
<path id="Vector_48" d="M48.9631 43.0695H48.6269V46.1891H48.9631V43.0695Z" fill="#F2F2F2"/>
<path id="Vector_49" d="M25.595 42.6479H2.05896V42.9852H25.595V42.6479Z" fill="#F2F2F2"/>
<path id="Vector_50" d="M19.2067 42.9009H18.8705V46.0205H19.2067V42.9009Z" fill="#F2F2F2"/>
<path id="Vector_51" d="M8.9518 42.9009H8.61557V46.0205H8.9518V42.9009Z" fill="#F2F2F2"/>
<path id="Vector_52" d="M53.8383 25.7849H30.3022V26.1221H53.8383V25.7849Z" fill="#F2F2F2"/>
<path id="Vector_53" d="M37.0272 22.7495H36.6909V25.8692H37.0272V22.7495Z" fill="#F2F2F2"/>
<path id="Vector_54" d="M47.2821 22.7495H46.9459V25.8692H47.2821V22.7495Z" fill="#F2F2F2"/>
</g>
<defs>
<clipPath id="clip0_0_87">
<rect width="150.631" height="126.131" fill="white"/>
</clipPath>
</defs>
</svg>
