<svg preserveAspectRatio="none" width="100%" height="100%" overflow="visible" style="display: block;" viewBox="0 0 167.908 266.634" fill="none" xmlns="http://www.w3.org/2000/svg">
<g id="confetti">
<path id="Vector" d="M51.4576 168.32C54.5315 168.974 57.5534 167.012 58.2072 163.938C58.8609 160.864 56.899 157.842 53.8251 157.189C50.7512 156.535 47.7293 158.497 47.0756 161.571C46.4218 164.645 48.3837 167.667 51.4576 168.32Z" fill="#FFD2E9"/>
<path id="Vector_2" d="M64.9956 230.546C68.0695 231.2 71.0914 229.238 71.7452 226.164C72.3989 223.09 70.437 220.068 67.3631 219.415C64.2892 218.761 61.2673 220.723 60.6136 223.797C59.9598 226.871 61.9217 229.893 64.9956 230.546Z" fill="#6C63FF"/>
<path id="Vector_3" d="M7.31363 91.4138C13.0642 93.0209 18.3521 95.968 22.7436 100.014C27.1352 104.059 30.5055 109.088 32.5781 114.687C33.156 116.272 33.9717 118.051 32.9986 119.646C32.6472 120.261 32.0973 120.739 31.439 121.002C30.7806 121.264 30.0527 121.295 29.3743 121.09C28.5496 120.724 27.8688 120.096 27.4374 119.303C27.006 118.511 26.8482 117.598 26.9884 116.707C27.1286 115.815 27.5589 114.995 28.2128 114.373C28.8666 113.751 29.7074 113.362 30.6047 113.267C35.0135 112.402 38.522 115.934 41.3657 118.761C47.8373 125.203 55.1576 131.34 64.1269 133.825C72.4291 136.124 82.1506 134.744 88.3806 128.446C89.4696 127.348 87.6892 125.732 86.6043 126.829C80.4255 133.079 70.4936 133.679 62.5749 130.826C57.8778 129.026 53.5236 126.434 49.7009 123.164C47.7069 121.524 45.8069 119.772 43.9651 117.964C42.2388 116.118 40.3521 114.43 38.3273 112.918C34.9105 110.584 29.9247 109.649 26.5602 112.635C23.4175 115.419 24.1337 121.319 28.0173 123.116C28.8748 123.482 29.8096 123.629 30.7381 123.545C31.6666 123.461 32.5597 123.148 33.3375 122.634C34.1154 122.12 34.7536 121.422 35.1951 120.6C35.6365 119.779 35.8675 118.862 35.8672 117.929C35.874 115.898 34.8138 113.683 34.0185 111.851C31.6321 106.336 28.039 101.426 23.5037 97.4824C18.9685 93.5392 13.6066 90.6634 7.81283 89.0666C6.31763 88.671 5.82193 91.0209 7.31363 91.4138Z" fill="#E6F3EC"/>
<path id="Vector_4" d="M162.091 37.543C157.518 36.2652 153.312 33.9217 149.819 30.7047C146.326 27.4877 143.646 23.4888 141.997 19.0356C141.537 17.7746 140.888 16.3588 141.662 15.0922C141.941 14.6027 142.379 14.2225 142.902 14.0137C143.426 13.805 144.005 13.78 144.545 13.943C145.198 14.2361 145.737 14.7362 146.078 15.3659C146.42 15.9957 146.544 16.7203 146.433 17.4278C146.321 18.1354 145.98 18.7867 145.462 19.2813C144.944 19.7759 144.278 20.0863 143.566 20.1647C140.06 20.8502 137.27 18.0437 135.007 15.7949C129.86 10.6716 124.038 5.79011 116.901 3.81324C110.302 1.9845 102.565 3.08078 97.6102 8.09083C96.7429 8.96747 98.1594 10.2521 99.0224 9.37662C103.936 4.40783 111.836 3.92382 118.134 6.19661C121.87 7.62902 125.333 9.69045 128.373 12.2916C129.96 13.596 131.47 14.9896 132.935 16.4308C134.308 17.8985 135.809 19.2415 137.419 20.4439C140.137 22.3007 144.099 23.0431 146.776 20.6685C147.359 20.095 147.8 19.393 148.064 18.6185C148.327 17.8441 148.406 17.0187 148.293 16.2084C148.181 15.3981 147.88 14.6255 147.415 13.9522C146.951 13.2789 146.335 12.7238 145.617 12.3311C144.935 12.0399 144.192 11.9224 143.453 11.9891C142.715 12.0559 142.004 12.3048 141.386 12.7135C140.767 13.1222 140.259 13.678 139.908 14.3311C139.557 14.9842 139.373 15.7142 139.373 16.4557C139.545 18.1473 140.044 19.7893 140.844 21.2898C142.742 25.6775 145.601 29.5834 149.21 32.7197C152.818 35.856 157.084 38.1429 161.694 39.4119C162.883 39.7272 163.278 37.8567 162.091 37.543Z" fill="#CCCCCC"/>
<path id="Vector_5" d="M153.76 97.6368L148.194 96.4531L144.304 114.742L149.87 115.925L153.76 97.6368Z" fill="#CCCCCC"/>
<path id="Vector_6" d="M126.368 165.347L131.535 170.41L128.827 177.38L135.253 173.766L140.807 178.381L139.611 171.085L145.752 166.967L138.587 166.071L136.828 158.912L133.595 165.654L126.368 165.347Z" fill="#EB8C84"/>
<path id="Vector_7" d="M118.17 90.3582C115.284 88.1436 111.016 88.8532 108.646 91.9418C106.276 95.0304 106.695 99.3363 109.581 101.551C112.467 103.766 116.734 103.056 119.104 99.9673C121.475 96.8787 121.056 92.5729 118.17 90.3582Z" fill="#83ECBA"/>
<path id="Vector_8" d="M66.4589 65.7417L71.1523 62.693L61.1357 47.273L56.4424 50.3217L66.4589 65.7417Z" fill="#D2F7FF"/>
<path id="Vector_9" d="M23.1096 261.941L26.1583 266.634L41.5783 256.617L38.5295 251.924L23.1096 261.941Z" fill="#FFD2E9"/>
</g>
</svg>
