<svg preserveAspectRatio="none" width="100%" height="100%" overflow="visible" style="display: block;" viewBox="0 0 155.007 256" fill="none" xmlns="http://www.w3.org/2000/svg">
<g id="Group">
<path id="Vector" d="M111.335 195.239C115.478 194.206 117.999 190.011 116.966 185.868C115.933 181.725 111.737 179.204 107.595 180.237C103.452 181.27 100.931 185.466 101.964 189.608C102.997 193.751 107.192 196.272 111.335 195.239Z" fill="#CB0530"/>
<path id="Vector_2" d="M42.5996 12.0508C45.5585 11.313 47.359 8.31637 46.6213 5.3575C45.8836 2.39864 42.8869 0.598056 39.928 1.33578C36.9692 2.07351 35.1686 5.07019 35.9063 8.02905C36.644 10.9879 39.6407 12.7885 42.5996 12.0508Z" fill="#D2F7FF"/>
<path id="Vector_3" d="M74.3957 156.646C77.3546 155.908 79.1552 152.912 78.4174 149.953C77.6797 146.994 74.683 145.193 71.7242 145.931C68.7653 146.669 66.9647 149.666 67.7024 152.624C68.4402 155.583 71.4369 157.384 74.3957 156.646Z" fill="#CB0530"/>
<path id="Vector_4" d="M102.733 242.909C105.691 242.171 107.492 239.174 106.754 236.215C106.017 233.257 103.02 231.456 100.061 232.194C97.1022 232.931 95.3016 235.928 96.0394 238.887C96.7771 241.846 99.7738 243.646 102.733 242.909Z" fill="#E6E6E6"/>
<path id="Vector_5" d="M8.02904 63.9312C10.9879 63.1935 12.7885 60.1968 12.0508 57.2379C11.313 54.2791 8.31636 52.4785 5.35749 53.2162C2.39863 53.9539 0.598046 56.9506 1.33577 59.9095C2.0735 62.8683 5.07018 64.6689 8.02904 63.9312Z" fill="#CCCCCC"/>
<path id="Vector_6" d="M154.144 162.766C149.782 161.284 145.833 158.788 142.621 155.484C139.409 152.181 137.026 148.163 135.667 143.76C135.288 142.511 134.737 141.108 135.553 139.922C135.851 139.462 136.295 139.118 136.813 138.943C137.332 138.769 137.894 138.776 138.408 138.963C139.025 139.282 139.52 139.795 139.817 140.424C140.114 141.052 140.196 141.761 140.05 142.44C139.905 143.12 139.54 143.732 139.011 144.184C138.483 144.635 137.821 144.901 137.127 144.939C133.693 145.418 131.137 142.546 129.069 140.247C124.353 135.013 118.976 129.967 112.168 127.67C105.867 125.543 98.3172 126.193 93.2486 130.782C92.3622 131.585 93.6655 132.902 94.551 132.103C99.5771 127.552 107.26 127.51 113.237 130.046C116.78 131.633 120.025 133.815 122.832 136.497C124.299 137.846 125.688 139.277 127.031 140.749C128.283 142.245 129.665 143.626 131.162 144.877C133.695 146.821 137.494 147.753 140.217 145.596C140.812 145.072 141.277 144.415 141.573 143.679C141.87 142.943 141.99 142.148 141.924 141.357C141.859 140.566 141.609 139.801 141.195 139.124C140.781 138.447 140.214 137.876 139.54 137.458C138.895 137.139 138.18 136.985 137.461 137.009C136.742 137.034 136.04 137.237 135.418 137.6C134.797 137.963 134.275 138.475 133.899 139.089C133.524 139.703 133.307 140.401 133.267 141.119C133.343 142.767 133.739 144.385 134.433 145.881C136.038 150.234 138.599 154.172 141.928 157.404C145.257 160.635 149.268 163.079 153.667 164.555C154.802 164.924 155.284 163.134 154.151 162.767L154.144 162.766Z" fill="#CCCCCC"/>
<path id="Vector_7" d="M20.7351 125.215L25.3871 128.01L34.5711 112.725L29.919 109.93L20.7351 125.215Z" fill="#B3B3B3"/>
<path id="Vector_8" d="M20.0455 254.13C24.1881 253.097 26.7091 248.901 25.6762 244.759C24.6434 240.616 20.4478 238.095 16.3052 239.128C12.1625 240.161 9.64159 244.357 10.6745 248.499C11.7073 252.642 15.9029 255.163 20.0455 254.13Z" fill="#CB0530"/>
</g>
</svg>
