<svg preserveAspectRatio="none" width="100%" height="100%" overflow="visible" style="display: block;" viewBox="0 0 118.591 96" fill="none" xmlns="http://www.w3.org/2000/svg">
<g id="Group">
<path id="Vector" d="M3.09927 23.9741L112.404 0.395334L113.824 0.0895638C114.547 -0.0674961 115.3 -0.0172563 115.996 0.2345C116.692 0.486257 117.303 0.929314 117.759 1.51273C118.214 2.09615 118.495 2.79625 118.571 3.53254C118.646 4.26883 118.512 5.01142 118.184 5.67494L74.7855 93.8078C74.5046 94.3741 74.0918 94.8646 73.5818 95.238C73.0718 95.6114 72.4796 95.8569 71.8549 95.9536C71.2283 96.051 70.5875 95.9945 69.9876 95.7888C69.3878 95.5831 68.8471 95.2344 68.4122 94.773L38.2691 62.9894C38.0547 62.7576 37.7947 62.5727 37.5053 62.4463C37.216 62.3199 36.9036 62.2548 36.5878 62.255C36.1586 62.249 35.7357 62.3599 35.3646 62.5757C34.9935 62.7916 34.6881 63.1043 34.4811 63.4804L28.307 74.9005C27.9128 75.6619 27.2753 76.2697 26.4958 76.6269C25.7163 76.9841 24.8397 77.0702 24.0056 76.8716L23.9749 76.8648C23.1305 76.6861 22.3706 76.2287 21.8176 75.566C21.2646 74.9033 20.9504 74.074 20.9257 73.2112L19.689 46.8494C19.6743 46.5204 19.5921 46.198 19.4476 45.9021C19.2925 45.6094 19.082 45.3495 18.8278 45.137L1.43848 30.8615C0.866887 30.3923 0.439061 29.7716 0.204038 29.0704C-0.0309844 28.3693 -0.063696 27.6161 0.109655 26.8972C0.283006 26.1783 0.655403 25.5228 1.18416 25.0058C1.71292 24.4888 2.37665 24.1313 3.09927 23.9741ZM2.43159 29.6479L19.8215 43.923C20.0481 44.1056 20.2534 44.313 20.4336 44.5414L112.601 2.74176C112.682 2.70391 112.767 2.67412 112.854 2.65285C113.21 2.5613 113.586 2.59685 113.918 2.75335C114.25 2.90984 114.517 3.17746 114.673 3.50992C114.828 3.84237 114.863 4.21877 114.77 4.57403C114.678 4.9293 114.464 5.2411 114.166 5.45551L38.3843 61.1228C38.7687 61.3228 39.1157 61.5875 39.4102 61.9054L69.5538 93.689C69.8154 93.9642 70.1395 94.1722 70.4987 94.2954C70.8578 94.4185 71.2414 94.4531 71.6168 94.3963C71.9923 94.3394 72.3484 94.1928 72.655 93.9689C72.9617 93.7449 73.2097 93.4502 73.3781 93.1099L116.776 4.97819C116.97 4.57997 117.048 4.13534 117.001 3.69492C116.955 3.2545 116.786 2.83598 116.513 2.487C116.24 2.13802 115.875 1.8726 115.459 1.72095C115.043 1.56931 114.593 1.53754 114.16 1.62925L112.706 1.94272L3.43524 25.5138C3.00138 25.6078 2.60274 25.822 2.28495 26.1319C1.96717 26.4419 1.74308 26.835 1.63835 27.2664C1.53362 27.6978 1.55248 28.15 1.69276 28.5711C1.83305 28.9923 2.08909 29.3654 2.43159 29.6479Z" fill="#14AE5C"/>
<path id="Vector_2" d="M3.09927 23.9741L112.404 0.395334L113.824 0.0895638C114.547 -0.0674961 115.3 -0.0172563 115.996 0.2345C116.692 0.486257 117.303 0.929314 117.759 1.51273C118.214 2.09615 118.496 2.79625 118.571 3.53254C118.646 4.26883 118.512 5.01142 118.184 5.67494L74.7855 93.8078C74.5046 94.3741 74.0918 94.8646 73.5818 95.238C73.0718 95.6114 72.4796 95.8569 71.8549 95.9536C71.2283 96.051 70.5875 95.9945 69.9876 95.7888C69.3878 95.5831 68.8471 95.2344 68.4122 94.773L38.2692 62.9894C38.0547 62.7576 37.7947 62.5727 37.5053 62.4463C37.216 62.3199 36.9036 62.2548 36.5878 62.255C36.1586 62.249 35.7357 62.3599 35.3646 62.5757C34.9935 62.7916 34.6881 63.1043 34.4811 63.4804L28.307 74.9005C27.9128 75.6619 27.2753 76.2697 26.4958 76.6269C25.7163 76.9841 24.8397 77.0702 24.0056 76.8716L23.9749 76.8648C23.1305 76.6861 22.3706 76.2287 21.8176 75.566C21.2646 74.9033 20.9504 74.074 20.9257 73.2112L19.689 46.8494C19.6743 46.5204 19.5921 46.198 19.4476 45.9021C19.2925 45.6094 19.082 45.3495 18.8278 45.137L1.43848 30.8615C0.866887 30.3923 0.439061 29.7716 0.204038 29.0704C-0.0309844 28.3693 -0.0636961 27.6161 0.109655 26.8972C0.283006 26.1783 0.655403 25.5228 1.18416 25.0058C1.71292 24.4888 2.37665 24.1313 3.09927 23.9741ZM2.43159 29.6479L19.8215 43.923C20.0481 44.1056 20.2534 44.313 20.4336 44.5414C20.5961 44.7444 20.7364 44.9641 20.8522 45.1968C20.9734 45.4352 21.0689 45.6858 21.1372 45.9443L21.1355 45.952C21.2074 46.2213 21.2489 46.4979 21.2591 46.7764L22.4956 73.1382C22.506 73.6566 22.6924 74.156 23.0243 74.5543C23.3562 74.9527 23.8137 75.2262 24.3217 75.3299L24.3371 75.3333C24.8376 75.4577 25.3655 75.4093 25.8351 75.196C26.3047 74.9828 26.6885 74.6172 26.9243 74.1584L33.1001 62.7312C33.4183 62.1434 33.8814 61.6467 34.4455 61.2882C35.0095 60.9296 35.6558 60.7212 36.3231 60.6826L36.3305 60.6843C36.4203 60.68 36.5098 60.6757 36.5975 60.6789C37.2202 60.6792 37.8333 60.8315 38.3837 61.1226C38.7681 61.3225 39.1151 61.5872 39.4096 61.9051L69.5538 93.689C69.8154 93.9642 70.1395 94.1722 70.4987 94.2954C70.8578 94.4185 71.2414 94.4531 71.6168 94.3963C71.9923 94.3394 72.3484 94.1928 72.655 93.9689C72.9617 93.7449 73.2097 93.4502 73.3781 93.1099L116.776 4.97819C116.97 4.57997 117.048 4.13534 117.001 3.69492C116.955 3.2545 116.786 2.83598 116.513 2.487C116.24 2.13802 115.875 1.8726 115.459 1.72095C115.043 1.56931 114.593 1.53754 114.16 1.62925L112.706 1.94272L3.43524 25.5138C3.00138 25.6078 2.60274 25.822 2.28495 26.1319C1.96717 26.4419 1.74308 26.835 1.63835 27.2664C1.53362 27.6978 1.55248 28.15 1.69276 28.5711C1.83305 28.9923 2.08909 29.3654 2.43159 29.6479Z" fill="#52525C"/>
<path id="Vector_3" d="M20.0851 44.6979L20.7346 46.1298L21.1358 45.9529L21.1375 45.9452L113.232 4.18599L36.3314 60.6846L36.324 60.6829L36.1203 60.839L37.0475 62.1071L38.3846 61.1229L114.167 5.45581C114.464 5.24138 114.678 4.92975 114.77 4.57475C114.862 4.21975 114.828 3.84364 114.672 3.51137C114.517 3.17911 114.25 2.91153 113.919 2.75484C113.587 2.59815 113.211 2.56218 112.856 2.65315C112.769 2.67444 112.684 2.70423 112.603 2.74206L20.4339 44.5414L20.0851 44.6979Z" fill="#52525C"/>
</g>
</svg>
