<svg preserveAspectRatio="none" width="100%" height="100%" overflow="visible" style="display: block;" viewBox="0 0 104.997 144" fill="none" xmlns="http://www.w3.org/2000/svg">
<path id="Vector" d="M1.02514 143.518C8.93144 134.521 20.1163 130.875 30.2251 128.963C42.7837 126.589 55.5246 126.601 68.0919 124.309C78.239 122.458 89.0813 118.885 97.3336 110.511C100.825 107.105 103.294 102.792 104.462 98.0566C105.516 93.0975 105.004 87.9336 102.996 83.2781C100.761 77.9386 97.1951 73.6852 93.4454 70.2011C89.1382 66.2558 84.2532 62.9922 78.9596 60.5233C67.8137 55.2121 56.0933 52.4466 44.6766 48.3707C39.0775 46.3717 33.4216 44.1797 28.2225 40.7463C23.819 37.8373 19.0195 33.9165 16.5689 28.0858C11.5128 16.0556 23.5744 8.88586 30.4099 6.17003C35.0554 4.40801 39.8404 3.03813 44.7146 2.07477C45.7454 1.85359 45.3081 -0.203713 44.2809 0.0164621C39.1502 1.0167 34.1218 2.48489 29.259 4.40262C25.1373 6.11499 20.8856 8.36545 17.647 12.2382C16.1731 13.9867 15.0832 16.0257 14.4484 18.2227C13.8135 20.4198 13.6477 22.7258 13.9618 24.991C14.8195 30.7623 18.5468 35.2108 22.0479 38.4324C26.6772 42.6925 31.9558 45.4747 37.3074 47.7425C42.9452 50.1311 48.6998 51.9925 54.4544 53.8183C65.9522 57.4669 77.9661 60.7182 88.3454 68.4817C95.6062 73.9127 105.47 84.0941 103.054 96.7172C101.982 102.322 98.7267 106.7 95.2132 109.922C91.0874 113.595 86.3294 116.489 81.1703 118.463C58.1693 127.719 32.8552 121.098 10.4473 133.672C6.47747 135.899 0.130749 141.723 0.130749 141.723C0.130749 141.723 -0.504414 145.259 1.02514 143.518Z" fill="#D6D6E3"/>
</svg>
