<svg preserveAspectRatio="none" width="100%" height="100%" overflow="visible" style="display: block;" viewBox="0 0 48 48" fill="none" xmlns="http://www.w3.org/2000/svg">
<g id="success icon">
<path id="Vector" d="M24 48C37.2548 48 48 37.2548 48 24C48 10.7452 37.2548 0 24 0C10.7452 0 0 10.7452 0 24C0 37.2548 10.7452 48 24 48Z" fill="#14AE5C"/>
<path id="Vector_2" d="M20.7242 36.4892C20.3098 36.4892 19.9011 36.3927 19.5304 36.2073C19.1597 36.0219 18.8373 35.7528 18.5887 35.4212L12.0413 26.691C11.831 26.4106 11.6779 26.0914 11.5909 25.7518C11.5039 25.4122 11.4846 25.0587 11.5342 24.7117C11.5838 24.3646 11.7013 24.0307 11.8799 23.729C12.0585 23.4274 12.2948 23.1638 12.5753 22.9535C12.8558 22.7431 13.175 22.5901 13.5146 22.5031C13.8542 22.4161 14.2076 22.3968 14.5547 22.4464C14.9017 22.496 15.2356 22.6135 15.5373 22.7921C15.839 22.9707 16.1025 23.207 16.3128 23.4875L20.5966 29.2L31.5987 12.6972C31.7931 12.4054 32.0432 12.1548 32.3345 11.9596C32.6258 11.7644 32.9527 11.6286 33.2966 11.5597C33.6404 11.4909 33.9945 11.4905 34.3385 11.5585C34.6825 11.6265 35.0097 11.7616 35.3015 11.956C35.5933 12.1505 35.844 12.4005 36.0391 12.6919C36.2343 12.9832 36.3702 13.3101 36.439 13.6539C36.5078 13.9978 36.5083 14.3518 36.4403 14.6958C36.3723 15.0398 36.2372 15.3671 36.0427 15.6589L22.9476 35.3015C22.7106 35.6567 22.392 35.9499 22.0185 36.1566C21.6449 36.3633 21.2272 36.4774 20.8004 36.4895L20.7242 36.4892Z" fill="white"/>
</g>
</svg>
